<?xml version="1.0" standalone="no"?>
<!DOCTYPE svg PUBLIC "-//W3C//DTD SVG 20010904//EN"
 "http://www.w3.org/TR/2001/REC-SVG-20010904/DTD/svg10.dtd">
<svg version="1.0" xmlns="http://www.w3.org/2000/svg"
 width="700.000000pt" height="700.000000pt" viewBox="0 0 700.000000 700.000000"
 preserveAspectRatio="xMidYMid meet">
<metadata>
Created by potrace 1.11, written by Peter Selinger 2001-2013
</metadata>
<g transform="translate(0.000000,700.000000) scale(0.100000,-0.100000)"
fill="#000000" stroke="none">
<path d="M3215 6989 c-1004 -86 -1899 -579 -2513 -1387 -373 -489 -613 -1100
-684 -1737 -17 -154 -17 -585 0 -730 44 -370 129 -694 269 -1020 276 -645 764
-1212 1365 -1586 447 -278 924 -443 1483 -511 130 -16 600 -16 730 0 451 55
818 163 1195 351 729 364 1312 973 1639 1714 144 325 238 675 283 1052 16 139
16 595 0 730 -108 889 -477 1619 -1122 2217 -507 471 -1171 785 -1865 882
-249 35 -546 45 -780 25z m-888 -2627 c24 -25 57 -125 241 -723 117 -382 227
-748 245 -814 32 -118 33 -120 61 -120 28 0 29 2 67 140 21 77 133 446 248
820 180 583 213 683 236 702 26 23 27 23 370 23 l343 0 16 -47 c34 -107 488
-1639 519 -1754 l34 -124 43 0 44 0 14 55 c14 56 510 1736 538 1823 l16 47
139 0 c76 0 139 -2 139 -5 0 -3 -147 -472 -326 -1042 -292 -932 -328 -1041
-355 -1065 l-29 -28 -184 0 c-181 0 -184 0 -208 25 -19 19 -84 215 -313 944
-159 506 -291 918 -292 917 -2 -2 15 -407 37 -902 22 -494 40 -918 40 -941 l0
-43 -134 0 -134 0 -6 113 c-4 61 -20 456 -36 877 -16 421 -33 802 -36 848 l-6
83 -31 -3 -31 -3 -217 -720 c-299 -988 -274 -912 -312 -935 -28 -18 -51 -20
-190 -20 -174 0 -205 8 -231 58 -8 15 -118 372 -246 792 -127 421 -236 780
-241 798 -9 26 -16 32 -39 32 l-28 0 -6 -82 c-3 -46 -20 -459 -36 -918 -17
-459 -33 -854 -36 -877 l-5 -43 -136 0 -136 0 7 118 c3 64 22 513 41 997 20
484 38 900 41 924 4 30 15 53 34 73 l28 28 205 0 205 0 29 -28z"/>
</g>
</svg>
